<mxfile host="app.diagrams.net" modified="2024-01-01T00:00:00.000Z" agent="CompareToUT Documentation" etag="1" version="24.0.0" type="device">
  <diagram name="Price Plan Management Dependencies" id="price-plan-management">
    <mxGraphModel dx="1000" dy="600" grid="1" gridSize="10" guides="1" tooltips="1" connect="1" arrows="1" fold="1" page="1" pageScale="1" pageWidth="1200" pageHeight="800" math="0" shadow="0">
      <root>
        <mxCell id="0" />
        <mxCell id="1" parent="0" />
        
        <!-- Price Plan Management Package -->
        <mxCell id="price-plan-package" value="Price Plan Management Package" style="rounded=1;whiteSpace=wrap;html=1;fillColor=#E1D5E7;strokeColor=#9673A6;fontColor=#000000;fontStyle=1;" vertex="1" parent="1">
          <mxGeometry x="100" y="50" width="250" height="60" as="geometry" />
        </mxCell>
        
        <!-- Database Tables -->
        <mxCell id="priceplans-table" value="PricePlans" style="rounded=1;whiteSpace=wrap;html=1;fillColor=#D5E8D4;strokeColor=#82B366;fontColor=#000000;" vertex="1" parent="1">
          <mxGeometry x="100" y="200" width="120" height="60" as="geometry" />
        </mxCell>
        
        <mxCell id="dayrates-table" value="DayRates" style="rounded=1;whiteSpace=wrap;html=1;fillColor=#D5E8D4;strokeColor=#82B366;fontColor=#000000;" vertex="1" parent="1">
          <mxGeometry x="280" y="200" width="120" height="60" as="geometry" />
        </mxCell>
        
        <!-- Connections with DAO annotations -->
        <mxCell id="connection1" value="" style="endArrow=classic;html=1;rounded=1;exitX=0.3;exitY=1;exitDx=0;exitDy=0;entryX=0.5;entryY=0;entryDx=0;entryDy=0;" edge="1" parent="1" source="price-plan-package" target="priceplans-table">
          <mxGeometry width="50" height="50" relative="1" as="geometry">
            <mxPoint x="300" y="300" as="sourcePoint" />
            <mxPoint x="350" y="250" as="targetPoint" />
          </mxGeometry>
        </mxCell>
        
        <mxCell id="dao1-label" value="PricePlanDAO&#xa;loadPricePlans()&#xa;addNewPricePlanWithDayRates()&#xa;updatePricePlanWithDayRates()&#xa;deletePricePlan()&#xa;updatePricePlanActiveStatus()" style="edgeLabel;html=1;align=center;verticalAlign=middle;resizable=0;points=[];fontSize=9;fontColor=#000000;labelBackgroundColor=#FFFFFF;" vertex="1" connectable="0" parent="connection1">
          <mxGeometry x="-0.2" y="1" relative="1" as="geometry">
            <mxPoint x="-30" y="5" as="offset" />
          </mxGeometry>
        </mxCell>
        
        <mxCell id="connection2" value="" style="endArrow=classic;html=1;rounded=1;exitX=0.7;exitY=1;exitDx=0;exitDy=0;entryX=0.5;entryY=0;entryDx=0;entryDy=0;" edge="1" parent="1" source="price-plan-package" target="dayrates-table">
          <mxGeometry width="50" height="50" relative="1" as="geometry">
            <mxPoint x="300" y="300" as="sourcePoint" />
            <mxPoint x="350" y="250" as="targetPoint" />
          </mxGeometry>
        </mxCell>
        
        <mxCell id="dao2-label" value="PricePlanDAO&#xa;getAllDayRatesForPricePlanID()&#xa;updateDayRate()" style="edgeLabel;html=1;align=center;verticalAlign=middle;resizable=0;points=[];fontSize=9;fontColor=#000000;labelBackgroundColor=#FFFFFF;" vertex="1" connectable="0" parent="connection2">
          <mxGeometry x="-0.2" y="1" relative="1" as="geometry">
            <mxPoint x="20" y="5" as="offset" />
          </mxGeometry>
        </mxCell>
        
      </root>
    </mxGraphModel>
  </diagram>
</mxfile>